<svg xmlns="http://www.w3.org/2000/svg" width="47" height="60" viewBox="0 0 47 60" fill="none">
    <path d="M39.9201 30.7569H30.7018L27.1486 27.205L27.0082 27.3454V32.2341L28.1158 33.3429V42.5612H31.663V34.3041H39.9201V30.7569Z" fill="#5DAFB7"/>
    <path d="M10.8023 6.29748V2.64111H0V13.4434H3.65637V8.88346L19.0042 24.2313L19.1458 24.0885V19.201L6.24235 6.29748H10.8023Z" fill="#5DAFB7"/>
    <path d="M34.3497 36.9908V48.7952H37.8957V40.5368H46.154V36.9908H34.3497Z" fill="#5DAFB7"/>
    <path d="M39.0069 2.64111L35.3506 6.29748H39.9105L14.3411 31.8681H9.78117L6.2352 35.4141H13.3799V42.56L16.9271 39.0128V34.4529L42.4965 8.88346V13.4434L46.1529 9.78706V2.64111H39.0069Z" fill="#CC0033"/>
    <path d="M3.51596 38.132L0.00119019 41.648H7.14713V48.7939L10.6931 45.2468V38.1008H3.54716L3.51596 38.132Z" fill="#CC0033"/>
    <path d="M29.4226 51.6883C29.2438 51.5095 29.0374 51.3763 28.8178 51.2863C28.5982 51.1975 28.3642 51.1519 28.1302 51.1519C27.8962 51.1519 27.6622 51.1963 27.4426 51.2863C27.223 51.3751 27.0166 51.5095 26.8378 51.6883L25.4723 53.0538C25.4411 53.085 25.4075 53.1054 25.3715 53.121C25.3607 53.1258 25.3499 53.1282 25.3379 53.1318C25.3115 53.1402 25.2863 53.1462 25.2599 53.1474C25.2095 53.1474 25.1459 53.139 25.1147 53.1258C25.0799 53.1114 25.0487 53.091 25.0199 53.0658C25.0115 53.0586 25.0055 53.0514 24.9983 53.043C24.9779 53.0214 24.9623 52.9986 24.9479 52.9722C24.9419 52.9614 24.9371 52.9518 24.9323 52.941C24.9179 52.9038 24.9071 52.863 24.9071 52.8174V29.4476L21.2507 33.104V52.8174C21.2507 52.863 21.2399 52.9026 21.2255 52.941C21.2207 52.9518 21.2159 52.9614 21.2099 52.9722C21.1955 52.9986 21.1799 53.0214 21.1595 53.043C21.1523 53.0502 21.1463 53.0586 21.1379 53.0658C21.1091 53.091 21.0779 53.1126 21.0431 53.1258C21.0167 53.1354 20.9663 53.1462 20.9315 53.1474C20.9267 53.1474 20.9027 53.1474 20.8967 53.1474C20.8703 53.1462 20.8439 53.1402 20.8187 53.1318C20.8079 53.1282 20.7971 53.1258 20.7851 53.121C20.7491 53.1054 20.7155 53.0838 20.6843 53.0538L19.3187 51.6883C19.1399 51.5095 18.9335 51.3763 18.7139 51.2863C18.4943 51.1975 18.2603 51.1519 18.0263 51.1519C17.7923 51.1519 17.5583 51.1963 17.3387 51.2863C17.1191 51.3751 16.9127 51.5095 16.7339 51.6883C16.0199 52.4022 16.0199 53.5602 16.7339 54.2742L22.0211 59.5614C22.1675 59.7078 22.3355 59.817 22.5155 59.8902C22.8755 60.0366 23.2811 60.0366 23.6423 59.8902C23.8223 59.817 23.9915 59.7078 24.1379 59.5614L29.425 54.2742C30.139 53.5602 30.139 52.4022 29.425 51.6883H29.4226Z" fill="#1A3347"/>
    <path d="M22.7806 7.53462C22.9438 7.69782 23.2102 7.69782 23.3734 7.53462L27.877 3.03105C28.2094 2.69866 28.3966 2.24746 28.3966 1.77706C28.3966 0.196675 26.4862 -0.594119 25.369 0.523072L23.3734 2.51866C23.2102 2.68186 22.9438 2.68186 22.7806 2.51866L20.785 0.523072C19.6678 -0.594119 17.7574 0.196675 17.7574 1.77706C17.7574 2.24746 17.9434 2.69866 18.277 3.03105L22.7806 7.53462Z" fill="#1A3347"/>
    <path d="M21.2531 14.821C21.2531 14.8462 21.2495 14.8714 21.2495 14.8966V21.9861L24.9058 18.3298V14.8966C24.9058 14.8714 24.9034 14.8462 24.9022 14.821L27.8782 11.845C28.2106 11.5126 28.3978 11.0614 28.3978 10.591C28.3978 9.01064 26.4874 8.21985 25.3702 9.33704L23.3747 11.3326C23.2115 11.4958 22.9451 11.4958 22.7819 11.3326L20.7863 9.33704C19.6691 8.21985 17.7587 9.01064 17.7587 10.591C17.7587 11.0614 17.9447 11.5126 18.2783 11.845L21.2543 14.821H21.2531Z" fill="#1A3347"/>
</svg>