<svg xmlns="http://www.w3.org/2000/svg" width="47" height="60" fill="none"><path d="M39.92 30.757h-9.218l-3.553-3.552-.14.14v4.89l1.107 1.108v9.218h3.547v-8.257h8.257v-3.547ZM10.802 6.297V2.641H0v10.802h3.656v-4.56l15.348 15.348.142-.143v-4.887L6.242 6.297h4.56Z" fill="#5DAFB7"/><path d="M34.35 36.99v11.805h3.546v-8.258h8.258V36.99H34.35Z" fill="#5DAFB7"/><path d="M39.007 2.641 35.35 6.297h4.56L14.34 31.868H9.78l-3.546 3.546h7.145v7.146l3.547-3.547v-4.56l25.57-25.57v4.56l3.656-3.656V2.641h-7.146Z" fill="#C03"/><path d="M3.516 38.132.001 41.648h7.146v7.146l3.546-3.547V38.1H3.547l-.031.031Z" fill="#C03"/><path d="M29.423 51.688a1.839 1.839 0 0 0-1.293-.536 1.813 1.813 0 0 0-1.292.536l-1.366 1.366a.315.315 0 0 1-.1.067c-.011.005-.022.007-.034.01a.3.3 0 0 1-.078.016.452.452 0 0 1-.145-.021.342.342 0 0 1-.095-.06l-.022-.023a.33.33 0 0 1-.066-.102.339.339 0 0 1-.025-.124v-23.37l-3.656 3.657v19.713a.344.344 0 0 1-.091.226l-.022.023a.317.317 0 0 1-.095.06.439.439 0 0 1-.111.021h-.035a.29.29 0 0 1-.078-.015c-.011-.004-.022-.006-.034-.011a.337.337 0 0 1-.1-.067l-1.366-1.366a1.839 1.839 0 0 0-1.293-.536 1.813 1.813 0 0 0-1.292.536 1.829 1.829 0 0 0 0 2.586l5.287 5.287a1.492 1.492 0 0 0 2.117 0l5.287-5.287a1.829 1.829 0 0 0 0-2.586h-.002ZM22.78 7.535a.42.42 0 0 0 .593 0l4.504-4.504c.332-.332.52-.784.52-1.254 0-1.58-1.91-2.371-3.028-1.254L23.373 2.52a.42.42 0 0 1-.592 0L20.785.523c-1.117-1.117-3.028-.326-3.028 1.254 0 .47.186.922.52 1.254l4.504 4.504Zm-1.527 7.286c0 .025-.003.05-.003.076v7.09l3.656-3.657v-3.433c0-.026-.003-.05-.004-.076l2.976-2.976c.333-.332.52-.784.52-1.254 0-1.58-1.91-2.371-3.028-1.254l-1.995 1.996a.42.42 0 0 1-.593 0l-1.996-1.996c-1.117-1.117-3.027-.326-3.027 1.254 0 .47.186.922.52 1.254l2.975 2.976Z" fill="#1A3347"/></svg>